<svg width="256" height="256" viewBox="0 0 256 256" xmlns="http://www.w3.org/2000/svg" fill="none">
  <defs>
    <linearGradient id="qz-blue" x1="68" y1="66" x2="130" y2="144" gradientUnits="userSpaceOnUse">
      <stop offset="0" stop-color="#D6F6FF"/>
      <stop offset="0.55" stop-color="#9DDEFF"/>
      <stop offset="1" stop-color="#74A8F7"/>
    </linearGradient>
    <linearGradient id="qz-green" x1="127" y1="70" x2="214" y2="190" gradientUnits="userSpaceOnUse">
      <stop offset="0" stop-color="#E9FAD8"/>
      <stop offset="0.55" stop-color="#A4EA6E"/>
      <stop offset="1" stop-color="#43BA4D"/>
    </linearGradient>
    <linearGradient id="qz-tail" x1="116" y1="150" x2="165" y2="206" gradientUnits="userSpaceOnUse">
      <stop offset="0" stop-color="#E9F9E7"/>
      <stop offset="1" stop-color="#70D081"/>
    </linearGradient>
    <radialGradient id="qz-dot" cx="0" cy="0" r="1" gradientUnits="userSpaceOnUse" gradientTransform="translate(122 208) rotate(90) scale(18)">
      <stop offset="0" stop-color="#EBFFF2"/>
      <stop offset="1" stop-color="#59D657"/>
    </radialGradient>
    <filter id="qz-soft-shadow" x="38" y="48" width="184" height="186" filterUnits="userSpaceOnUse">
      <feOffset dy="3"/>
      <feGaussianBlur stdDeviation="4.5"/>
      <feColorMatrix type="matrix" values="0 0 0 0 0.18 0 0 0 0 0.38 0 0 0 0 0.26 0 0 0 0.22 0"/>
      <feBlend in2="SourceGraphic" mode="normal"/>
    </filter>
  </defs>

  <g filter="url(#qz-soft-shadow)">
    <path
      d="M99 79C111 69 126 63 141 63C176 63 203 90 203 124C203 148 190 168 166 184L124 207L116 191L150 169C171 156 182 141 182 123C182 101 164 84 141 84C130 84 118 88 109 98C104 103 95 103 89 98C83 93 83 84 89 79C92 77 95 75 99 79Z"
      fill="url(#qz-green)"
    />
    <path
      d="M74 84C86 71 103 64 121 64C143 64 160 77 168 96L151 106C146 93 135 86 122 86C111 86 100 90 92 98C85 106 82 115 82 125C82 134 84 141 90 148C95 154 95 163 88 168C81 173 72 172 66 164C57 153 53 139 53 124C53 108 59 95 74 84Z"
      fill="url(#qz-blue)"
    />
    <path
      d="M122 145C132 137 139 130 145 121L159 133C152 145 143 155 131 164L115 189C113 192 109 194 105 193C101 192 98 188 98 184C98 180 99 176 102 173L122 145Z"
      fill="url(#qz-tail)"
    />
    <circle cx="122" cy="208" r="13" fill="url(#qz-dot)"/>
  </g>
</svg>
