<svg width="256" height="256" viewBox="0 0 256 256" xmlns="http://www.w3.org/2000/svg" fill="none">
  <defs>
    <linearGradient id="qz-grad-main" x1="68" y1="36" x2="192" y2="184" gradientUnits="userSpaceOnUse">
      <stop offset="0" stop-color="#D8F5FF"/>
      <stop offset="0.52" stop-color="#9AE8FF"/>
      <stop offset="1" stop-color="#65F26D"/>
    </linearGradient>
    <linearGradient id="qz-grad-inner" x1="86" y1="58" x2="166" y2="170" gradientUnits="userSpaceOnUse">
      <stop offset="0" stop-color="#EEF8FF"/>
      <stop offset="1" stop-color="#B9F8C2"/>
    </linearGradient>
    <linearGradient id="qz-grad-dot" x1="110" y1="196" x2="148" y2="234" gradientUnits="userSpaceOnUse">
      <stop offset="0" stop-color="#E9FFF0"/>
      <stop offset="1" stop-color="#5DFF77"/>
    </linearGradient>
    <radialGradient id="qz-bg-glow" cx="0" cy="0" r="1" gradientUnits="userSpaceOnUse" gradientTransform="translate(128 128) rotate(90) scale(128)">
      <stop stop-color="#183954"/>
      <stop offset="1" stop-color="#050A1E"/>
    </radialGradient>
    <filter id="qz-glow" x="24" y="20" width="208" height="220" filterUnits="userSpaceOnUse">
      <feGaussianBlur stdDeviation="7.5" result="blur"/>
      <feMerge>
        <feMergeNode in="blur"/>
        <feMergeNode in="SourceGraphic"/>
      </feMerge>
    </filter>
  </defs>

  <rect width="256" height="256" rx="40" fill="url(#qz-bg-glow)"/>

  <g filter="url(#qz-glow)">
    <path
      d="M133.6 45.7C173.1 45.7 204.9 77.5 204.9 117.1C204.9 140.8 192.8 162.8 173.7 175.7L143.7 195.9V145.4L160.5 134.1C169.8 127.8 175.6 117.2 175.6 105.8C175.6 87.6 160.9 72.8 142.8 72.8C130.5 72.8 119.1 79.7 113.4 90.6C110.6 95.9 104.1 97.9 98.8 95.1C93.5 92.3 91.5 85.8 94.3 80.5C103.8 61.9 123 45.7 133.6 45.7Z"
      fill="url(#qz-grad-main)"
    />
    <path
      d="M142.4 72.8C160.6 72.8 175.3 87.6 175.3 105.8C175.3 117.2 169.5 127.8 160.2 134.1L129.5 154.7L143.4 176L184.9 148.1C198.8 138.8 207.2 123.2 207.2 106.5C207.2 73.5 180.5 46.8 147.5 46.8C131.5 46.8 115.8 53.2 104.3 64.7L118.5 78.9C124.9 72.6 133.5 72.8 142.4 72.8Z"
      fill="url(#qz-grad-inner)"
      opacity="0.55"
    />
    <path d="M106.4 173.1L143.7 145.4V195.9L106.4 223.6V173.1Z" fill="#DDFBE6"/>
    <path d="M143.7 195.9L173.7 175.7L193.1 201.3H159.8L143.7 195.9Z" fill="#2C6D6A" opacity="0.5"/>
    <circle cx="127.5" cy="213.6" r="15.8" fill="url(#qz-grad-dot)"/>
  </g>
</svg>
